<?xml version="1.0" encoding="utf-8"?>
<!-- Generator: Adobe Illustrator 25.2.3, SVG Export Plug-In . SVG Version: 6.00 Build 0)  -->
<svg version="1.1" id="Layer_1" xmlns="http://www.w3.org/2000/svg" xmlns:xlink="http://www.w3.org/1999/xlink" x="0px" y="0px"
	 viewBox="0 0 305 808" style="enable-background:new 0 0 305 808;" xml:space="preserve">
<style type="text/css">
	.st0{fill:none;}
	.st1{fill:none;stroke:#2F423F;}
</style>
<g id="Group_60" transform="translate(-1049.514 -635)">
	<g id="Ellipse_14" transform="translate(1322.514 908)">
		<path class="st0" d="M31,162c-17.1,0-31-13.9-31-31s13.9-31,31-31"/>
		<path class="st1" d="M31,161.5c-16.8,0-30.5-13.7-30.5-30.5s13.7-30.5,30.5-30.5"/>
	</g>
	<g id="Ellipse_15" transform="translate(1304.514 889)">
		<path class="st0" d="M49.5,199C22.2,199,0,176.8,0,149.5S22.2,100,49.5,100"/>
		<path class="st1" d="M49.5,198.5c-27.1,0-49-21.9-49-49s21.9-49,49-49"/>
	</g>
	<g id="Ellipse_16" transform="translate(1286.514 871)">
		<path class="st0" d="M67.5,235C30.2,235,0,204.8,0,167.5S30.2,100,67.5,100"/>
		<path class="st1" d="M67.5,234.5c-37,0-67-30-67-67s30-67,67-67"/>
	</g>
	<g id="Ellipse_17" transform="translate(1267.514 853)">
		<path class="st0" d="M86,272c-47.5,0-86-38.5-86-86s38.5-86,86-86"/>
		<path class="st1" d="M86,271.5c-47.2,0-85.5-38.3-85.5-85.5s38.3-85.5,85.5-85.5"/>
	</g>
	<g id="Ellipse_18" transform="translate(1249.514 835)">
		<path class="st0" d="M104,308C46.6,308,0,261.4,0,204s46.6-104,104-104"/>
		<path class="st1" d="M104,307.5C46.8,307.5,0.5,261.2,0.5,204S46.8,100.5,104,100.5"/>
	</g>
	<g id="Ellipse_19" transform="translate(1232.514 816)">
		<path class="st0" d="M122,344C54.6,344,0,289.4,0,222s54.6-122,122-122"/>
		<path class="st1" d="M122,343.5C54.9,343.5,0.5,289.1,0.5,222S54.9,100.5,122,100.5"/>
	</g>
	<g id="Ellipse_20" transform="translate(1214.514 798)">
		<path class="st0" d="M140,380C62.7,380,0,317.3,0,240s62.7-140,140-140"/>
		<path class="st1" d="M140,379.5C63,379.5,0.5,317,0.5,240S63,100.5,140,100.5"/>
	</g>
	<g id="Ellipse_21" transform="translate(1195.514 781)">
		<path class="st0" d="M158,416C70.7,416,0,345.3,0,258s70.7-158,158-158"/>
		<path class="st1" d="M158,415.5C71,415.5,0.5,345,0.5,258S71,100.5,158,100.5"/>
	</g>
	<g id="Ellipse_22" transform="translate(1177.514 763)">
		<path class="st0" d="M176,452C78.8,452,0,373.2,0,276s78.8-176,176-176"/>
		<path class="st1" d="M176,451.5C79.1,451.5,0.5,372.9,0.5,276S79.1,100.5,176,100.5"/>
	</g>
	<g id="Ellipse_23" transform="translate(1159.514 744)">
		<path class="st0" d="M194.5,489C87.1,489,0,401.9,0,294.5S87.1,100,194.5,100"/>
		<path class="st1" d="M194.5,488.5c-107.1,0-194-86.9-194-194s86.9-194,194-194"/>
	</g>
	<g id="Ellipse_24" transform="translate(1141.514 726)">
		<path class="st0" d="M212.5,525C95.1,525,0,429.9,0,312.5S95.1,100,212.5,100"/>
		<path class="st1" d="M212.5,524.5c-117.1,0-212-94.9-212-212s94.9-212,212-212"/>
	</g>
	<g id="Ellipse_25" transform="translate(1122.514 708)">
		<path class="st0" d="M231,562C103.4,562,0,458.6,0,331s103.4-231,231-231"/>
		<path class="st1" d="M231,561.5C103.7,561.5,0.5,458.3,0.5,331S103.7,100.5,231,100.5"/>
	</g>
	<g id="Ellipse_26" transform="translate(1104.514 690)">
		<path class="st0" d="M249,598C111.5,598,0,486.5,0,349s111.5-249,249-249"/>
		<path class="st1" d="M249,597.5C111.8,597.5,0.5,486.2,0.5,349S111.8,100.5,249,100.5"/>
	</g>
	<g id="Ellipse_27" transform="translate(1086.514 671)">
		<path class="st0" d="M267.5,635C119.8,635,0,515.2,0,367.5S119.8,100,267.5,100"/>
		<path class="st1" d="M267.5,634.5c-147.5,0-267-119.5-267-267s119.5-267,267-267"/>
	</g>
	<g id="Ellipse_28" transform="translate(1068.514 653)">
		<path class="st0" d="M285.5,671C127.8,671,0,543.2,0,385.5S127.8,100,285.5,100"/>
		<path class="st1" d="M285.5,670.5c-157.4,0-285-127.6-285-285s127.6-285,285-285"/>
	</g>
	<g id="Ellipse_29" transform="translate(1049.514 635)">
		<path class="st0" d="M304,708C136.1,708,0,571.9,0,404s136.1-304,304-304"/>
		<path class="st1" d="M304,707.5C136.4,707.5,0.5,571.6,0.5,404S136.4,100.5,304,100.5"/>
	</g>
</g>
</svg>
