<svg xmlns="http://www.w3.org/2000/svg" width="61.937" height="66.014" viewBox="0 0 61.937 66.014">
  <g id="Star" transform="translate(-14053.27 -1080.231)" fill="#dead68">
    <path d="M 14084.236328125 1141.012084960938 C 14083.6982421875 1138.519653320313 14082.908203125 1136.094604492188 14081.873046875 1133.76171875 C 14081.0224609375 1131.850830078125 14080.01171875 1130.010375976563 14078.869140625 1128.290893554688 C 14078.78125 1128.16015625 14078.693359375 1128.030151367188 14078.6044921875 1127.900512695313 L 14078.328125 1127.497192382813 L 14077.84765625 1127.587646484375 C 14077.6943359375 1127.616577148438 14077.541015625 1127.646118164063 14077.3876953125 1127.676879882813 C 14075.3408203125 1128.091918945313 14073.3251953125 1128.679443359375 14071.3955078125 1129.42333984375 C 14069.013671875 1130.3408203125 14066.740234375 1131.496459960938 14064.59765625 1132.87744140625 C 14065.9765625 1130.737548828125 14067.1337890625 1128.4638671875 14068.0537109375 1126.07861328125 C 14068.8056640625 1124.1181640625 14069.3916015625 1122.1025390625 14069.796875 1120.086181640625 C 14069.8427734375 1119.863159179688 14069.8837890625 1119.64208984375 14069.9150390625 1119.474853515625 L 14070.001953125 1119.003662109375 L 14069.611328125 1118.726440429688 C 14068.2333984375 1117.749145507813 14066.771484375 1116.862182617188 14065.265625 1116.090209960938 C 14062.8095703125 1114.832885742188 14060.2373046875 1113.879638671875 14057.5830078125 1113.239868164063 C 14060.2373046875 1112.60009765625 14062.80859375 1111.646850585938 14065.265625 1110.389770507813 C 14066.81640625 1109.594116210938 14068.3212890625 1108.67724609375 14069.7373046875 1107.664184570313 L 14070.1171875 1107.392456054688 L 14070.041015625 1106.931640625 C 14069.7548828125 1105.208251953125 14069.33984375 1103.495239257813 14068.8046875 1101.839965820313 C 14067.955078125 1099.211181640625 14066.810546875 1096.718017578125 14065.38671875 1094.389282226563 C 14067.7158203125 1095.813354492188 14070.208984375 1096.957763671875 14072.837890625 1097.807006835938 C 14074.447265625 1098.326538085938 14076.1083984375 1098.733520507813 14077.7744140625 1099.016723632813 L 14078.24609375 1099.096801757813 L 14078.517578125 1098.70361328125 C 14078.62890625 1098.542236328125 14078.744140625 1098.372802734375 14078.8681640625 1098.185791015625 C 14080.01171875 1096.4658203125 14081.0224609375 1094.625366210938 14081.873046875 1092.715209960938 C 14082.9091796875 1090.3798828125 14083.69921875 1087.95556640625 14084.2373046875 1085.467041015625 C 14084.775390625 1087.955932617188 14085.56640625 1090.380004882813 14086.6025390625 1092.714599609375 C 14087.439453125 1094.605102539063 14088.44921875 1096.445678710938 14089.6025390625 1098.1845703125 C 14089.689453125 1098.315795898438 14089.77734375 1098.446044921875 14089.8662109375 1098.575927734375 L 14090.1435546875 1098.980590820313 L 14090.625 1098.889038085938 C 14090.7783203125 1098.859985351563 14090.931640625 1098.830078125 14091.0849609375 1098.799072265625 C 14093.107421875 1098.393188476563 14095.1240234375 1097.805541992188 14097.076171875 1097.052856445313 C 14099.458984375 1096.13525390625 14101.732421875 1094.97998046875 14103.875 1093.599975585938 C 14102.4951171875 1095.739868164063 14101.33984375 1098.012939453125 14100.4208984375 1100.398193359375 C 14099.6767578125 1102.329467773438 14099.0888671875 1104.345092773438 14098.6748046875 1106.388671875 C 14098.6259765625 1106.636596679688 14098.5888671875 1106.826782226563 14098.556640625 1107.007080078125 L 14098.47265625 1107.475708007813 L 14098.861328125 1107.751342773438 C 14100.2470703125 1108.734619140625 14101.7099609375 1109.622314453125 14103.208984375 1110.389770507813 C 14105.666015625 1111.64697265625 14108.23828125 1112.60009765625 14110.892578125 1113.239868164063 C 14108.23828125 1113.879638671875 14105.666015625 1114.832763671875 14103.208984375 1116.08984375 C 14101.6591796875 1116.88525390625 14100.154296875 1117.802612304688 14098.736328125 1118.816528320313 L 14098.3564453125 1119.088500976563 L 14098.4326171875 1119.549682617188 C 14098.7216796875 1121.284545898438 14099.13671875 1122.99609375 14099.6669921875 1124.636474609375 C 14100.515625 1127.264892578125 14101.6591796875 1129.7568359375 14103.0810546875 1132.083129882813 C 14100.7548828125 1130.660888671875 14098.2646484375 1129.517700195313 14095.6376953125 1128.669189453125 C 14094.0439453125 1128.154663085938 14092.3818359375 1127.748168945313 14090.6982421875 1127.4609375 L 14090.2275390625 1127.380493164063 L 14089.9560546875 1127.773315429688 C 14089.8251953125 1127.962036132813 14089.7099609375 1128.130981445313 14089.603515625 1128.28955078125 C 14088.44921875 1130.030517578125 14087.439453125 1131.87109375 14086.6025390625 1133.76220703125 C 14085.5654296875 1136.097412109375 14084.775390625 1138.522216796875 14084.236328125 1141.012084960938 Z" stroke="none"/>
    <path d="M 14084.2373046875 1138.000610351563 C 14084.69921875 1136.455200195313 14085.2587890625 1134.939208984375 14085.9169921875 1133.45849609375 C 14086.771484375 1131.528930664063 14087.80078125 1129.651123046875 14088.9775390625 1127.877075195313 L 14088.978515625 1127.875 L 14088.98046875 1127.872924804688 C 14089.0888671875 1127.710815429688 14089.2060546875 1127.53857421875 14089.3388671875 1127.346313476563 L 14089.8828125 1126.560913085938 L 14090.82421875 1126.721557617188 C 14092.5439453125 1127.014892578125 14094.240234375 1127.429931640625 14095.8681640625 1127.955444335938 C 14097.6884765625 1128.543579101563 14099.4453125 1129.270141601563 14101.12890625 1130.130493164063 C 14100.2685546875 1128.4462890625 14099.5419921875 1126.688842773438 14098.9541015625 1124.8671875 C 14098.412109375 1123.191650390625 14097.9873046875 1121.443969726563 14097.693359375 1119.672607421875 L 14097.5400390625 1118.750366210938 L 14098.30078125 1118.20654296875 C 14099.748046875 1117.171264648438 14101.2841796875 1116.234741210938 14102.8671875 1115.422119140625 C 14104.5712890625 1114.55078125 14106.328125 1113.822265625 14108.12890625 1113.239868164063 C 14106.328125 1112.657348632813 14104.5703125 1111.928833007813 14102.8671875 1111.057373046875 C 14101.3359375 1110.273681640625 14099.841796875 1109.367065429688 14098.4267578125 1108.363037109375 L 14097.650390625 1107.811889648438 L 14097.818359375 1106.87451171875 C 14097.8515625 1106.689208984375 14097.888671875 1106.494506835938 14097.9404296875 1106.23974609375 C 14098.3623046875 1104.155029296875 14098.9619140625 1102.098876953125 14099.7216796875 1100.128784179688 C 14100.3037109375 1098.615966796875 14100.9794921875 1097.147338867188 14101.74609375 1095.728149414063 C 14100.326171875 1096.494750976563 14098.857421875 1097.170532226563 14097.345703125 1097.752685546875 C 14095.353515625 1098.520629882813 14093.296875 1099.1201171875 14091.2333984375 1099.534301757813 C 14091.0771484375 1099.565795898438 14090.921875 1099.59619140625 14090.765625 1099.625854492188 L 14089.8017578125 1099.808959960938 L 14089.248046875 1098.99951171875 C 14089.1552734375 1098.864501953125 14089.064453125 1098.730102539063 14088.9775390625 1098.59912109375 C 14087.80078125 1096.825073242188 14086.771484375 1094.947265625 14085.9169921875 1093.018920898438 C 14085.259765625 1091.537963867188 14084.69921875 1090.022094726563 14084.2373046875 1088.476684570313 C 14083.775390625 1090.022094726563 14083.21484375 1091.53857421875 14082.5576171875 1093.020141601563 C 14081.69140625 1094.968627929688 14080.66015625 1096.84619140625 14079.4921875 1098.601684570313 C 14079.365234375 1098.792236328125 14079.248046875 1098.964965820313 14079.134765625 1099.1298828125 L 14078.591796875 1099.916259765625 L 14077.6494140625 1099.756103515625 C 14075.947265625 1099.466918945313 14074.2509765625 1099.05126953125 14072.607421875 1098.520751953125 C 14070.78515625 1097.931884765625 14069.0263671875 1097.204223632813 14067.33984375 1096.342529296875 C 14068.2021484375 1098.0283203125 14068.9296875 1099.786865234375 14069.5185546875 1101.609375 C 14070.064453125 1103.2998046875 14070.4892578125 1105.049194335938 14070.7802734375 1106.80908203125 L 14070.93359375 1107.730712890625 L 14070.173828125 1108.274291992188 C 14068.7275390625 1109.30859375 14067.19140625 1110.244750976563 14065.607421875 1111.057495117188 C 14063.904296875 1111.928955078125 14062.1474609375 1112.657348632813 14060.3466796875 1113.239868164063 C 14062.1474609375 1113.822509765625 14063.9052734375 1114.551147460938 14065.6083984375 1115.4228515625 C 14067.1455078125 1116.211059570313 14068.6376953125 1117.11669921875 14070.044921875 1118.114624023438 L 14070.8271484375 1118.6689453125 L 14070.65234375 1119.611328125 C 14070.62109375 1119.781005859375 14070.5791015625 1120.005249023438 14070.53125 1120.236694335938 C 14070.1181640625 1122.293212890625 14069.5205078125 1124.348388671875 14068.75390625 1126.3486328125 C 14068.169921875 1127.861083984375 14067.4931640625 1129.3291015625 14066.7265625 1130.747924804688 C 14068.146484375 1129.981323242188 14069.6142578125 1129.305419921875 14071.1259765625 1128.723510742188 C 14073.0947265625 1127.964599609375 14075.150390625 1127.365234375 14077.240234375 1126.941528320313 C 14077.396484375 1126.91015625 14077.552734375 1126.880004882813 14077.708984375 1126.8505859375 L 14078.669921875 1126.669555664063 L 14079.2236328125 1127.476196289063 C 14079.3154296875 1127.611083984375 14079.40625 1127.745361328125 14079.4931640625 1127.875610351563 C 14080.66015625 1129.630004882813 14081.69140625 1131.507568359375 14082.55859375 1133.45751953125 C 14083.2158203125 1134.937622070313 14083.775390625 1136.453979492188 14084.2373046875 1138.000610351563 M 14084.2373046875 1146.244873046875 C 14083.9189453125 1142.011596679688 14082.89453125 1137.9130859375 14081.1875 1134.06591796875 C 14080.3583984375 1132.20263671875 14079.3701171875 1130.399536132813 14078.244140625 1128.706176757813 C 14078.1591796875 1128.578491210938 14078.0732421875 1128.451416015625 14077.986328125 1128.32470703125 C 14077.8359375 1128.35302734375 14077.685546875 1128.382080078125 14077.53515625 1128.412231445313 C 14075.5439453125 1128.816040039063 14073.5673828125 1129.389892578125 14071.6650390625 1130.123168945313 C 14067.7373046875 1131.635864257813 14064.1162109375 1133.807373046875 14060.896484375 1136.577514648438 C 14063.6669921875 1133.360961914063 14065.837890625 1129.737060546875 14067.3544921875 1125.808471679688 C 14068.083984375 1123.906127929688 14068.6611328125 1121.932983398438 14069.0615234375 1119.938598632813 C 14069.1025390625 1119.739013671875 14069.140625 1119.538696289063 14069.177734375 1119.338256835938 C 14067.8203125 1118.375732421875 14066.392578125 1117.510864257813 14064.923828125 1116.757568359375 C 14061.26171875 1114.883544921875 14057.33984375 1113.700439453125 14053.26953125 1113.239868164063 C 14057.33984375 1112.779296875 14061.26171875 1111.59619140625 14064.923828125 1109.72216796875 C 14066.4365234375 1108.946166992188 14067.90625 1108.051635742188 14069.30078125 1107.05419921875 C 14069.0205078125 1105.361938476563 14068.6142578125 1103.6904296875 14068.0908203125 1102.070556640625 C 14066.826171875 1098.156127929688 14064.892578125 1094.54638671875 14062.337890625 1091.340454101563 C 14065.5439453125 1093.89453125 14069.154296875 1095.828735351563 14073.068359375 1097.093383789063 C 14074.6396484375 1097.6005859375 14076.259765625 1097.99853515625 14077.900390625 1098.27734375 C 14078.0166015625 1098.109130859375 14078.130859375 1097.940063476563 14078.244140625 1097.77001953125 C 14079.3701171875 1096.07666015625 14080.3583984375 1094.273559570313 14081.1875 1092.410278320313 C 14082.89453125 1088.563110351563 14083.921875 1084.464477539063 14084.2373046875 1080.231323242188 C 14084.552734375 1084.464477539063 14085.580078125 1088.563110351563 14087.2880859375 1092.410278320313 C 14088.11328125 1094.273559570313 14089.1044921875 1096.07666015625 14090.2275390625 1097.77001953125 C 14090.3125 1097.89794921875 14090.3984375 1098.025268554688 14090.4853515625 1098.152221679688 C 14090.6357421875 1098.123657226563 14090.7861328125 1098.094360351563 14090.9365234375 1098.06396484375 C 14092.9306640625 1097.663696289063 14094.904296875 1097.086303710938 14096.806640625 1096.35302734375 C 14100.734375 1094.84033203125 14104.3583984375 1092.668823242188 14107.5791015625 1089.898681640625 C 14104.8046875 1093.115234375 14102.6337890625 1096.739135742188 14101.12109375 1100.667724609375 C 14100.3876953125 1102.569946289063 14099.8134765625 1104.546630859375 14099.41015625 1106.53759765625 C 14099.3701171875 1106.73779296875 14099.3310546875 1106.9384765625 14099.294921875 1107.1396484375 C 14100.65234375 1108.102783203125 14102.078125 1108.968383789063 14103.55078125 1109.72216796875 C 14107.2138671875 1111.59619140625 14111.1357421875 1112.779296875 14115.2060546875 1113.239868164063 C 14111.1357421875 1113.700439453125 14107.2138671875 1114.883544921875 14103.55078125 1116.757568359375 C 14102.0380859375 1117.533813476563 14100.568359375 1118.4287109375 14099.1728515625 1119.426635742188 C 14099.4541015625 1121.1181640625 14099.8583984375 1122.790161132813 14100.380859375 1124.405639648438 C 14101.6455078125 1128.323608398438 14103.5791015625 1131.933349609375 14106.1337890625 1135.1357421875 C 14102.9306640625 1132.581665039063 14099.3212890625 1130.6474609375 14095.4072265625 1129.3828125 C 14093.8359375 1128.875610351563 14092.212890625 1128.480102539063 14090.572265625 1128.2001953125 C 14090.4560546875 1128.368041992188 14090.3408203125 1128.53662109375 14090.2275390625 1128.706176757813 C 14089.1044921875 1130.399536132813 14088.11328125 1132.20263671875 14087.2880859375 1134.06591796875 C 14085.580078125 1137.9130859375 14084.552734375 1142.011596679688 14084.2373046875 1146.244873046875 Z" stroke="none" fill="#dead68"/>
  </g>
</svg>
